HIERARCHY
ROOT Hips
{
	OFFSET 0 0 0
	CHANNELS 6 Xposition Yposition Zposition Yrotation Xrotation Zrotation
	JOINT Spine
	{
		OFFSET -0 8.37147 -2.66841
		CHANNELS 3 Yrotation Xrotation Zrotation
		JOINT Spine1
		{
			OFFSET -0 8.81736 0
			CHANNELS 3 Yrotation Xrotation Zrotation
			JOINT Spine2
			{
				OFFSET -0 8.81736 0
				CHANNELS 3 Yrotation Xrotation Zrotation
				JOINT Spine3
				{
					OFFSET -0 8.81736 0
					CHANNELS 3 Yrotation Xrotation Zrotation
					JOINT Neck
					{
						OFFSET -0 20.2165 3.66841
						CHANNELS 3 Yrotation Xrotation Zrotation
						JOINT Head
						{
							OFFSET -0 10.4643 0
							CHANNELS 3 Yrotation Xrotation Zrotation
							End Site
							{
								OFFSET 0 15 0
							}
						}
					}
					JOINT LeftShoulder
					{
						OFFSET 1.74406 7.24 3.48811
						CHANNELS 3 Yrotation Xrotation Zrotation
						JOINT LeftArm
						{
							OFFSET 15.166 0 0
							CHANNELS 3 Yrotation Xrotation Zrotation
							JOINT LeftForeArm
							{
								OFFSET 25.1836 0 0
								CHANNELS 3 Yrotation Xrotation Zrotation
								JOINT LeftHand
								{
									OFFSET 23.8595 0 0
									CHANNELS 3 Yrotation Xrotation Zrotation
									End Site
									{
										OFFSET 15 0 0
									}
								}
							}
						}
					}
					JOINT RightShoulder
					{
						OFFSET -1.74406 7.24 3.48811
						CHANNELS 3 Yrotation Xrotation Zrotation
						JOINT RightArm
						{
							OFFSET -15.166 0 0
							CHANNELS 3 Yrotation Xrotation Zrotation
							JOINT RightForeArm
							{
								OFFSET -25.1836 0 0
								CHANNELS 3 Yrotation Xrotation Zrotation
								JOINT RightHand
								{
									OFFSET -23.8595 0 0
									CHANNELS 3 Yrotation Xrotation Zrotation
									End Site
									{
										OFFSET -15 0 0
									}
								}
							}
						}
					}
				}
			}
		}
	}
	JOINT LeftUpLeg
	{
		OFFSET 10.4643 -3.48811 2
		CHANNELS 3 Yrotation Xrotation Zrotation
		JOINT LeftLeg
		{
			OFFSET -0 -38.892 2.44168
			CHANNELS 3 Yrotation Xrotation Zrotation
			JOINT LeftFoot
			{
				OFFSET -0 -41.3956 -2.44168
				CHANNELS 3 Yrotation Xrotation Zrotation
				JOINT LeftToeBase
				{
					OFFSET -0 -6.7338 15.6965
					CHANNELS 3 Yrotation Xrotation Zrotation
					End Site
					{
						OFFSET 0 0 5
					}
				}
			}
		}
	}
	JOINT RightUpLeg
	{
		OFFSET -10.4643 -3.48811 2
		CHANNELS 3 Yrotation Xrotation Zrotation
		JOINT RightLeg
		{
			OFFSET -0 -38.892 2.44168
			CHANNELS 3 Yrotation Xrotation Zrotation
			JOINT RightFoot
			{
				OFFSET -0 -41.3956 -2.44168
				CHANNELS 3 Yrotation Xrotation Zrotation
				JOINT RightToeBase
				{
					OFFSET -0 -6.7338 15.6965
					CHANNELS 3 Yrotation Xrotation Zrotation
					End Site
					{
						OFFSET 0 0 5
					}
				}
			}
		}
	}
}
MOTION
Frames: 14
Frame Time: 0.00833333
-103.468787 94.329736 38.756192 38.045511 1.976033 2.825077 3.998465 2.801989 0.550757 3.686213 3.397496 -1.000761 4.023441 4.606562 -3.240838 2.132070 5.179303 -3.950238 -25.222956 -2.651627 5.450405 -10.888315 2.018709 -0.345682 24.789022 13.445359 23.453288 -38.299568 13.028695 -49.403982 -102.987443 -16.692266 -4.841496 3.074712 -6.968861 -3.134672 -3.269898 0.692869 -18.960703 6.894865 16.124604 68.962691 124.629883 5.040893 14.110937 -18.515876 -6.996101 37.800413 16.275426 -7.939373 1.916689 0.000000 18.372250 0.000000 14.385628 1.720142 -7.736586 0.000000 -3.664059 0.000000 -7.882479 -18.110966 -16.457045 0.000000 45.333385 0.000000 -19.637432 8.096308 -0.933697 0.000000 -7.472401 0.000000
-103.334485 94.644287 38.787567 38.496735 1.680725 2.662819 3.571974 3.015743 0.655775 3.304329 3.375061 -0.936146 4.006709 4.639654 -3.154879 2.078468 5.357184 -4.216117 -24.839256 -2.504065 4.828234 -10.737150 2.467756 -0.504162 25.663912 13.156448 23.622480 -35.919325 13.075876 -50.974099 -102.625184 -15.594962 -5.440777 1.969589 -7.286405 -2.092569 -2.975394 0.261249 -20.218296 6.538451 14.577661 70.861288 125.076571 4.385743 13.270407 -17.715476 -8.670218 38.048112 15.756089 -7.204495 2.185087 0.000000 17.439326 0.000000 14.221448 2.282735 -8.227144 0.000000 -3.151933 0.000000 -8.677709 -19.327655 -15.165620 0.000000 48.961477 0.000000 -20.242814 6.374303 -1.287097 0.000000 -7.736358 0.000000
-103.200781 94.874396 38.829987 38.974862 1.437894 2.544227 3.267440 3.353381 0.847574 3.027835 3.354420 -0.973580 3.958272 4.410986 -3.350797 1.953508 5.418160 -4.355279 -24.584659 -1.965589 4.452878 -10.648410 2.812049 -0.820449 26.899671 12.913525 23.792888 -34.386455 12.646627 -52.006999 -101.526022 -14.519466 -6.364050 1.424196 -7.473407 -0.550451 -3.025244 0.107035 -21.074427 6.904540 12.736355 72.525363 125.377879 4.216382 12.027310 -16.507926 -10.407779 38.073506 15.132622 -6.580450 2.395587 0.000000 16.682790 0.000000 14.142604 2.678182 -8.656087 0.000000 -2.910567 0.000000 -9.272191 -20.723386 -13.948403 0.000000 53.128245 0.000000 -20.267943 5.122344 -0.478641 0.000000 -7.840661 0.000000
-103.136011 95.030182 38.931583 39.722485 1.207142 2.289766 3.000596 3.263619 0.977288 2.810982 3.574895 -0.947259 3.728439 4.610978 -3.240973 1.702816 5.221231 -4.761017 -24.266981 -1.328096 4.484769 -10.547291 3.020115 -1.448562 28.477773 12.629752 24.154799 -34.228011 12.102592 -53.118376 -99.759622 -14.527077 -6.615339 1.837879 -6.046866 0.939383 -3.088401 -0.082785 -21.770843 8.035146 10.694522 74.416124 125.290925 4.803873 10.045991 -14.923778 -12.286745 38.233915 14.256252 -6.207715 2.821070 0.000000 16.237565 0.000000 13.867183 2.929646 -9.171157 0.000000 -2.904039 0.000000 -10.206818 -21.969175 -12.385966 0.000000 57.389546 0.000000 -20.210847 3.705433 0.645484 0.000000 -6.706341 0.000000
-103.030969 95.099231 39.029349 40.390610 0.905843 2.282694 2.714645 3.384209 0.745630 2.607848 3.708245 -1.074719 3.651455 4.497696 -3.083451 1.581540 5.157025 -4.637971 -24.109361 -0.700796 4.182360 -10.521879 3.328566 -2.119171 29.777942 12.348717 24.306801 -35.296770 11.882219 -55.013793 -97.638645 -12.989382 -5.813115 2.180550 -5.608647 3.240435 -3.244718 -0.376046 -22.372697 9.769268 8.535707 75.963470 125.072469 5.426655 7.257877 -13.832553 -13.593469 38.650016 13.525367 -5.639929 2.963494 0.000000 15.800028 0.000000 13.627982 2.920267 -9.426762 0.000000 -2.643972 0.000000 -10.978576 -23.262303 -11.134280 0.000000 61.792848 0.000000 -19.835542 3.282853 1.756508 0.000000 -7.292139 0.000000
-102.988586 95.092566 39.150055 41.390780 0.659397 2.149479 2.334352 3.456168 0.437747 2.292324 3.604641 -1.177930 3.599579 4.574951 -2.895002 1.562383 5.123921 -4.275101 -24.103949 0.126401 3.806831 -10.552868 3.424499 -2.493212 30.524178 11.952028 24.495621 -37.233241 11.958617 -57.599497 -94.949767 -10.954856 -4.521374 2.079963 -5.738931 6.873848 -2.967349 -1.015374 -22.901134 10.930473 6.646229 77.333822 125.082797 6.544193 4.453595 -13.293736 -16.049854 38.471672 12.412569 -5.435218 3.286790 0.000000 15.805711 0.000000 13.007886 2.703590 -9.686540 0.000000 -2.444207 0.000000 -12.217309 -24.455152 -9.614890 0.000000 66.189097 0.000000 -19.429076 2.727387 3.547646 0.000000 -7.402552 0.000000
-102.988806 95.000958 39.249219 42.424946 0.390843 2.063528 1.993044 3.474724 0.147798 1.973077 3.977627 -1.390792 3.542884 4.397738 -3.123596 1.606924 4.894549 -3.301159 -24.108523 0.847213 3.573488 -10.622314 3.566845 -3.434881 31.495270 11.825476 24.664274 -40.338003 11.638244 -60.167036 -91.511518 -10.231040 -2.294142 2.523941 -5.088996 9.524884 -2.660512 -1.696866 -23.731971 11.951760 4.419202 78.750083 124.994892 7.321856 1.389216 -12.903520 -17.977542 38.041831 11.263334 -5.423447 3.561608 0.000000 16.172866 0.000000 12.311003 2.397914 -9.637998 0.000000 -2.439638 0.000000 -13.409129 -25.646906 -8.099484 0.000000 70.685487 0.000000 -18.900645 2.268245 5.719594 0.000000 -7.201731 0.000000
-102.942163 94.853711 39.351620 43.341091 0.064627 2.131167 1.757142 3.757708 -0.240292 1.817566 3.919283 -1.487759 3.482413 4.258683 -2.982674 1.606724 4.886376 -2.974394 -24.288442 1.558014 3.256508 -10.782632 3.898697 -4.198452 32.133744 11.903127 24.603296 -43.316996 11.058149 -62.163295 -87.496443 -8.850079 -0.087812 3.057369 -5.797201 11.883106 -2.822288 -2.189102 -24.282993 13.132470 1.226124 80.076633 124.736496 9.398989 -1.382721 -12.170924 -20.329076 35.377059 10.259861 -5.377894 3.703746 0.000000 16.740465 0.000000 11.446920 1.997025 -9.463461 0.000000 -2.673684 0.000000 -14.667141 -26.751107 -6.722970 0.000000 75.044077 0.000000 -18.229134 1.999220 7.546066 0.000000 -7.747032 0.000000
-102.907227 94.641846 39.443085 44.326945 -0.233831 2.201410 1.618255 3.878277 -0.537445 1.699330 3.984549 -1.563166 3.278520 4.336998 -2.827344 1.515316 4.745450 -2.735252 -24.424004 2.060262 2.835476 -10.919025 4.364091 -4.799599 32.411882 11.799002 24.322095 -45.945543 10.175427 -64.138387 -82.598246 -8.142889 2.037435 3.574202 -6.499963 12.933547 -2.612641 -2.960350 -24.534676 13.730876 -2.028637 81.202757 124.572204 11.246571 -3.850841 -11.481649 -22.404764 31.138158 9.201195 -5.486013 3.817420 0.000000 17.540396 0.000000 10.714730 1.362072 -9.445228 0.000000 -3.011766 0.000000 -16.153820 -27.892313 -5.287318 0.000000 79.409375 0.000000 -17.569356 1.780680 8.540720 0.000000 -7.946129 0.000000
-102.859290 94.338483 39.524051 45.224586 -0.542018 2.302317 1.570536 4.166100 -0.744168 1.655422 3.810580 -1.628993 3.188082 4.355087 -2.743306 1.523809 4.742254 -2.428266 -24.845700 2.604970 2.216292 -11.171212 4.795453 -5.349968 32.333243 11.926175 23.789718 -48.424599 8.904930 -65.663452 -76.999471 -7.774743 3.919674 3.288762 -8.118672 13.676679 -2.819207 -3.607830 -24.787116 14.264414 -6.034289 82.257242 123.976802 13.771218 -6.520098 -10.915853 -24.955856 26.447631 8.513063 -5.770765 3.882620 0.000000 18.704391 0.000000 9.903635 0.466528 -9.454771 0.000000 -3.204206 0.000000 -17.707306 -28.930947 -3.856989 0.000000 83.710497 0.000000 -16.803425 1.259497 8.907633 0.000000 -7.516295 0.000000
-102.757861 93.973193 39.578693 46.021998 -1.032563 2.653597 1.564603 4.286344 -0.948327 1.612121 4.096909 -1.761545 3.174922 4.419878 -2.864176 1.668984 4.694392 -1.945977 -25.382187 2.885564 1.382763 -11.442596 5.309868 -5.762278 31.758472 12.260611 22.798180 -50.539043 7.500588 -66.718457 -71.268036 -8.193869 6.093846 4.373106 -9.980289 12.165637 -3.074779 -4.399360 -25.011382 14.611941 -10.312605 83.231892 123.262958 15.867907 -9.412802 -10.669810 -25.913018 20.966200 8.207965 -5.804661 3.668185 0.000000 19.848372 0.000000 9.090996 -0.560754 -9.571156 0.000000 -3.126390 0.000000 -19.139435 -29.856665 -2.764761 0.000000 87.896144 0.000000 -16.488077 0.997494 8.572193 0.000000 -7.660123 0.000000
-102.656482 93.544806 39.608054 46.769347 -1.440318 3.038186 1.638871 4.579712 -1.165119 1.731622 4.108123 -1.794638 3.132149 4.364925 -2.709763 1.604174 4.826011 -1.925680 -25.930741 2.942595 0.600652 -11.733150 6.143295 -6.208279 30.591338 12.805706 21.266574 -51.541615 6.240414 -67.273551 -65.042598 -8.357885 7.904325 4.886687 -11.466675 10.108726 -3.538328 -5.000155 -24.771863 15.439648 -15.269067 83.685874 122.330924 17.270204 -12.706384 -10.283356 -27.013060 16.201100 8.127178 -6.117472 3.357558 0.000000 21.283833 0.000000 8.360116 -1.609729 -9.531300 0.000000 -3.236750 0.000000 -20.692043 -30.874261 -1.693248 180.000000 88.016716 180.000000 -16.209103 0.837106 7.705079 0.000000 -7.785284 0.000000
-102.526355 93.063971 39.610516 47.346512 -1.956075 3.588156 1.723134 4.705474 -1.367783 1.799270 4.383472 -1.828747 3.242648 4.401407 -2.704316 1.750553 4.970081 -1.816155 -26.612627 2.956902 -0.519382 -11.998440 6.825061 -6.206750 28.516955 13.494058 19.275404 -51.749026 5.019347 -67.519177 -58.859535 -9.756433 9.242501 6.040614 -13.140988 8.027507 -4.342545 -5.277863 -24.264143 16.916070 -21.037092 83.423457 121.068057 18.447027 -16.461683 -9.354451 -27.020022 10.190972 8.274956 -6.282278 2.831690 0.000000 22.739016 0.000000 7.746612 -2.696559 -9.235416 0.000000 -3.201428 0.000000 -21.969699 -31.755068 -0.906131 180.000000 84.031762 180.000000 -15.973858 0.479679 6.831865 0.000000 -7.780930 0.000000
-102.349237 92.526367 39.601376 47.795647 -2.579872 4.242327 1.851816 5.012489 -1.426267 1.930251 4.548182 -1.862835 3.333053 4.462234 -2.824723 1.794768 5.131294 -1.933989 -27.367579 2.885199 -1.709262 -12.255045 7.670254 -5.926714 26.303482 14.044539 17.116876 -51.448021 3.842077 -67.380861 -52.403689 -11.180672 9.962097 7.244255 -14.009253 6.739660 -5.107146 -5.321374 -23.032962 19.718387 -27.048960 81.671435 119.864078 19.266802 -20.945084 -8.249415 -28.139609 5.323543 8.551967 -6.265570 2.139999 0.000000 24.204742 0.000000 7.358942 -3.964534 -8.768164 0.000000 -2.995672 0.000000 -23.010839 -32.582619 -0.450527 180.000000 80.120895 180.000000 -15.837276 0.116142 6.668799 0.000000 -6.959193 0.000000
